#!OML:ASF E:\acrobat2\Project_11_07_03\Capture day 1\Session 1\Acrobat.ASF
:FULLY-SPECIFIED
:DEGREES
289
root 5.75638 18.3574 27.321 88.5272 -86.4445 272.18
lowerback 1.48698 -0.548317 3.82298
upperback 0.504891 -0.685169 0.933474
thorax -0.348777 -0.347827 -1.17277
lowerneck 0.337931 -1.8848 -0.00398978
upperneck 0.404721 -2.54378 3.5489
head 0.115812 -1.27779 1.08291
rclavicle -2.41366e-015 -1.65457e-014
rhumerus -45.9421 -5.55633 -79.2202
rradius 34.8664
rwrist -6.3498
rhand -7.49032 -38.9459
rfingers 7.12502
rthumb 18.3992 -68.0957
lclavicle -2.41366e-015 -1.65457e-014
lhumerus -27.1658 -3.10181 74.8623
lradius 31.5359
lwrist 12.7834
lhand -3.02916 -18.6839
lfingers 7.12502
lthumb 22.686 10.0026
rfemur -0.255595 0.619155 11.9911
rtibia 15.8959
rfoot -9.59071 -11.5291
rtoes -13.2371
lfemur 177.498 173.254 171.56
ltibia 17.6669
lfoot -5.44665 -7.09654
ltoes 42.0084
290
root 5.72432 18.4288 27.344 81.1586 -86.1701 279.878
lowerback 1.22261 -0.474016 4.1227
upperback 0.287645 -0.587571 0.829313
thorax -0.422806 -0.302369 -1.45012
lowerneck -0.00264397 -1.94962 0.0668535
upperneck 0.738544 -2.64214 3.37905
head 0.272144 -1.31929 1.01238
rclavicle -4.37637e-015 9.79014e-015
rhumerus -45.7656 -5.05433 -79.5248
rradius 35.7242
rwrist -8.50161
rhand -7.52218 -38.5652
rfingers 7.12502
rthumb 18.3685 -67.7179
lclavicle -4.37637e-015 9.79014e-015
lhumerus -29.2001 -5.05598 75.8641
lradius 31.664
lwrist 13.3827
lhand -2.46264 -18.2001
lfingers 7.12502
lthumb 23.2296 10.4189
rfemur 0.2815 1.51176 12.6512
rtibia 14.4406
rfoot -10.3388 -11.9607
rtoes -10.1215
lfemur 178.193 174.346 171.516
ltibia 15.6147
lfoot -5.1859 -6.00475
ltoes 41.8899
291
root 5.69082 18.4716 27.3701 76.181 -85.9491 285.183
lowerback 0.841574 -0.41374 4.37769
upperback 0.152726 -0.519924 0.723581
thorax -0.34711 -0.268752 -1.70463
lowerneck -0.322324 -1.98533 -0.00671607
upperneck 0.966471 -2.69894 3.36037
head 0.396453 -1.342 1.01437
rclavicle -1.00945e-015 -1.5207e-014
rhumerus -45.4254 -4.82375 -79.5451
rradius 36.57
rwrist -10.4333
rhand -6.91217 -37.813
rfingers 7.12502
rthumb 18.9553 -66.9093
lclavicle -1.00945e-015 -1.5207e-014
lhumerus -31.0626 -6.77846 76.8675
lradius 31.5105
lwrist 13.6813
lhand -1.83058 -18.2526
lfingers 7.12502
lthumb 23.8359 10.2886
rfemur 0.689857 2.3504 13.1811
rtibia 13.1721
rfoot -10.5511 -12.4507
rtoes -7.00708
lfemur 178.968 175.461 171.371
ltibia 13.5144
lfoot -5.03787 -5.149
ltoes 43.7345
292
root 5.66269 18.4808 27.389 71.8943 -85.9442 289.883
lowerback 0.385924 -0.393757 4.24209
upperback 0.0196678 -0.513269 0.631916
thorax -0.227467 -0.264176 -1.72574
lowerneck -0.627558 -1.94074 -0.249474
upperneck 1.19465 -2.64861 3.49704
head 0.522271 -1.31152 1.09452
rclavicle 4.35152e-015 5.1684e-015
rhumerus -44.9641 -4.04664 -79.7768
rradius 37.4116
rwrist -12.3929
rhand -6.49729 -37.2179
rfingers 7.12502
rthumb 19.3543 -66.2748
lclavicle 4.35152e-015 5.1684e-015
lhumerus -32.8472 -8.08764 77.9043
lradius 31.2266
lwrist 13.7384
lhand -0.961244 -18.4438
lfingers 7.12502
lthumb 24.6694 9.98602
rfemur 0.902545 3.03892 13.397
rtibia 11.9685
rfoot -9.9432 -13.3809
rtoes -2.54254
lfemur 179.616 176.26 171.05
ltibia 11.5372
lfoot -5.43972 -4.55769
ltoes 43.5711
293
root 5.63062 18.4641 27.4058 63.8265 -86.3814 298.048
lowerback 0.167882 -0.391195 3.46425
upperback -0.00151805 -0.519165 0.450189
thorax -0.122164 -0.263579 -1.47831
lowerneck -0.924278 -1.88305 -0.627414
upperneck 1.50592 -2.58728 3.91608
head 0.679989 -1.27415 1.28762
rclavicle 1.89467e-016 2.5842e-015
rhumerus -44.5199 -3.22593 -79.9343
rradius 38.2849
rwrist -13.5149
rhand -5.95118 -37.3916
rfingers 7.12502
rthumb 19.8793 -66.3949
lclavicle 1.89467e-016 2.5842e-015
lhumerus -34.4091 -8.97432 78.9334
lradius 30.6861
lwrist 13.3733
lhand 0.0998018 -18.1662
lfingers 7.12502
lthumb 25.686 10.1208
rfemur 1.59432 3.60724 12.9534
rtibia 10.5705
rfoot -9.46528 -14.8895
rtoes 0.929995
lfemur 180.71 177.074 170.044
ltibia 9.42817
lfoot -5.93152 -4.00696
ltoes 42.267
294
root 5.60415 18.4189 27.4203 49.3053 -86.8457 312.603
lowerback 0.0358907 -0.329247 2.56015
upperback 0.0127597 -0.439463 0.0881377
thorax -0.0255873 -0.220509 -1.34409
lowerneck -1.12318 -1.96022 -0.579581
upperneck 1.6656 -2.70202 4.05563
head 0.767716 -1.3267 1.32024
rclavicle 2.62147e-015 -6.16232e-015
rhumerus -44.1654 -3.14794 -79.8719
rradius 39.1704
rwrist -13.7337
rhand -5.63974 -37.3634
rfingers 7.12502
rthumb 20.1786 -66.3354
lclavicle 2.62147e-015 -6.16232e-015
lhumerus -35.6655 -10.275 79.9497
lradius 29.9559
lwrist 13.1323
lhand 1.31698 -17.4858
lfingers 7.12502
lthumb 26.8512 10.6275
rfemur 2.43214 4.18095 12.2675
rtibia 9.1583
rfoot -10.6697 -16.5147
rtoes 4.58452
lfemur 181.779 177.731 168.698
ltibia 7.47025
lfoot -6.18493 -3.70228
ltoes 41.4113
295
root 5.57706 18.3557 27.4346 33.2639 -87.005 328.664
lowerback -0.0435503 -0.195832 1.91427
upperback -0.00627664 -0.262009 -0.293474
thorax 0.00802573 -0.131006 -1.37337
lowerneck -1.16278 -2.13075 -0.407774
upperneck 1.71405 -2.93352 3.97742
head 0.790571 -1.44102 1.26292
rclavicle -6.50399e-015 0
rhumerus -43.8035 -3.0801 -79.8262
rradius 39.8577
rwrist -14.3107
rhand -6.28735 -36.8923
rfingers 7.12502
rthumb 19.5561 -65.9288
lclavicle -6.50399e-015 0
lhumerus -36.868 -11.6651 81.0515
lradius 29.1515
lwrist 13.0503
lhand 2.88084 -16.9689
lfingers 7.12502
lthumb 28.3467 10.9053
rfemur 3.23125 4.63971 11.6592
rtibia 7.86106
rfoot -12.7107 -18.2846
rtoes 6.61175
lfemur 182.808 178.482 167.432
ltibia 5.64183
lfoot -6.9212 -3.42103
ltoes 40.6175
296
root 5.55272 18.2762 27.438 16.2909 -87.0036 345.791
lowerback -0.257317 -0.0994061 1.05872
upperback -0.0579856 -0.135321 -0.609686
thorax 0.0809516 -0.0676864 -1.21769
lowerneck -1.12544 -2.23743 -0.625971
upperneck 1.76158 -3.08355 4.33554
head 0.814266 -1.51497 1.41205
rclavicle 6.9761e-015 4.17448e-015
rhumerus -43.2168 -2.85455 -79.8139
rradius 40.1499
rwrist -14.7538
rhand -7.18742 -36.7682
rfingers 7.12502
rthumb 18.6906 -65.8903
lclavicle 6.9761e-015 4.17448e-015
lhumerus -37.8439 -12.3334 81.9349
lradius 28.0616
lwrist 12.51
lhand 4.43101 -16.4342
lfingers 7.12502
lthumb 29.8271 11.1842
rfemur 3.7428 4.58146 10.933
rtibia 7.2121
rfoot -15.1182 -19.4355
rtoes 8.06171
lfemur 183.578 179.386 166.121
ltibia 4.03163
lfoot -8.03319 -3.09736
ltoes 40.2839
297
root 5.54084 18.1849 27.4326 -0.772642 -87.042 363.124
lowerback -0.486494 0.0704644 -0.0149045
upperback -0.126118 0.0925247 -0.922869
thorax 0.145111 0.0449703 -0.935254
lowerneck -1.11415 -2.37191 -0.679574
upperneck 1.71452 -3.26894 4.61471
head 0.80994 -1.60728 1.50797
rclavicle 4.60311e-015 -6.16232e-015
rhumerus -42.4668 -2.88673 -79.7371
rradius 40.0034
rwrist -14.4053
rhand -7.8207 -36.5925
rfingers 7.12502
rthumb 18.0814 -65.7721
lclavicle 4.60311e-015 -6.16232e-015
lhumerus -38.2966 -12.618 82.5785
lradius 26.2448
lwrist 11.0823
lhand 5.33203 -15.8841
lfingers 7.12502
lthumb 30.6866 11.5767
rfemur 3.99807 5.30263 10.2179
rtibia 6.57335
rfoot -17.2462 -20.4754
rtoes 7.65273
lfemur 184.136 180.375 164.79
ltibia 2.60251
lfoot -9.10101 -2.47827
ltoes 39.2556
298
root 5.52937 18.097 27.4273 -13.9361 -86.7993 376.456
lowerback -0.618975 0.243498 -0.880844
upperback -0.13965 0.326242 -1.22242
thorax 0.206161 0.159885 -0.754526
lowerneck -1.15654 -2.55047 -0.359943
upperneck 1.59098 -3.50819 4.54454
head 0.77708 -1.7271 1.42743
rclavicle -1.55301e-015 -8.74653e-015
rhumerus -41.5692 -3.29033 -79.553
rradius 39.5234
rwrist -13.6008
rhand -8.45613 -36.4335
rfingers 7.12502
rthumb 17.4699 -65.6685
lclavicle -1.55301e-015 -8.74653e-015
lhumerus -38.1559 -12.1099 82.6844
lradius 23.6915
lwrist 8.72959
lhand 5.99154 -15.6321
lfingers 7.12502
lthumb 31.3153 11.7088
rfemur 4.48645 6.07933 9.72826
rtibia 5.77259
rfoot -18.8833 -21.7524
rtoes 5.85626
lfemur 184.671 180.927 163.782
ltibia 1.43676
lfoot -9.31107 -2.12612
ltoes 38.1656
299
root 5.50897 18.033 27.416 -23.5482 -86.1602 386.146
lowerback -0.796009 0.2679 -1.83241
upperback -0.0886896 0.366913 -1.47353
thorax 0.353371 0.176631 -0.477324
lowerneck -1.14026 -2.69043 -0.0950048
upperneck 1.40913 -3.68951 4.4074
head 0.713507 -1.82024 1.33743
rclavicle 7.21837e-015 -2.78299e-015
rhumerus -41.1547 -3.75816 -79.3317
rradius 39.8814
rwrist -12.6353
rhand -8.98915 -37.0055
rfingers 7.12502
rthumb 16.9569 -66.2853
lclavicle 7.21837e-015 -2.78299e-015
lhumerus -37.5439 -9.67643 81.6888
lradius 20.8453
lwrist 5.70934
lhand 7.06428 -15.3478
lfingers 7.12502
lthumb 32.3369 11.79
rfemur 5.28122 6.17071 9.11791
rtibia 4.79659
rfoot -20.315 -22.275
rtoes 7.39591
lfemur 185.088 180.486 163.018
ltibia 0.665043
lfoot -8.09131 -2.71364
ltoes 38.0102
300
root 5.49031 18.0073 27.3938 -32.2244 -85.5533 395.078
lowerback -1.04891 0.317486 -2.815
upperback -0.189674 0.44243 -1.8032
thorax 0.38626 0.209992 -0.263355
lowerneck -1.01583 -2.85753 -0.014181
upperneck 1.34739 -3.91236 4.46388
head 0.67839 -1.93377 1.3409
rclavicle 4.58447e-015 -1.63003e-014
rhumerus -40.6353 -4.04612 -79.3113
rradius 39.5311
rwrist -11.968
rhand -9.41808 -37.1443
rfingers 7.12502
rthumb 16.544 -66.459
lclavicle 4.58447e-015 -1.63003e-014
lhumerus -36.9154 -5.79142 79.7246
lradius 17.9805
lwrist 1.84368
lhand 7.76836 -15.1112
lfingers 7.12502
lthumb 33.0068 11.8876
rfemur 5.7647 6.85517 8.40276
rtibia 3.68053
rfoot -20.9429 -23.3465
rtoes 8.74337
lfemur 185.099 179.317 162.428
ltibia 0.278088
lfoot -6.34247 -3.67615
ltoes 37.6113
